<mxfile host="app.diagrams.net" modified="2023-06-01T10:23:55.200Z" agent="Mozilla/5.0 (X11; Ubuntu; Linux x86_64; rv:109.0) Gecko/20100101 Firefox/113.0" etag="GiZB2dBCEriNdI8Ql4tO" version="21.3.6" type="device">
  <diagram name="Page-1" id="UJWeyyJU9OdZzMqE_IKT">
    <mxGraphModel dx="1208" dy="714" grid="1" gridSize="10" guides="1" tooltips="1" connect="1" arrows="1" fold="1" page="1" pageScale="1" pageWidth="850" pageHeight="1100" math="0" shadow="0">
      <root>
        <mxCell id="0" />
        <mxCell id="1" parent="0" />
        <mxCell id="K5T4_W8C3K1s5eYFWP6l-1" value="Field updating:" style="text;html=1;align=center;verticalAlign=middle;resizable=0;points=[];autosize=1;strokeColor=none;fillColor=none;fontSize=19;" vertex="1" parent="1">
          <mxGeometry x="105" y="65" width="150" height="40" as="geometry" />
        </mxCell>
        <mxCell id="K5T4_W8C3K1s5eYFWP6l-13" value="" style="edgeStyle=orthogonalEdgeStyle;rounded=0;orthogonalLoop=1;jettySize=auto;html=1;" edge="1" parent="1" source="K5T4_W8C3K1s5eYFWP6l-2" target="K5T4_W8C3K1s5eYFWP6l-12">
          <mxGeometry relative="1" as="geometry" />
        </mxCell>
        <mxCell id="K5T4_W8C3K1s5eYFWP6l-2" value="&lt;font style=&quot;font-size: 39px;&quot;&gt;?&lt;/font&gt;" style="rounded=0;whiteSpace=wrap;html=1;" vertex="1" parent="1">
          <mxGeometry x="300" y="120" width="100" height="150" as="geometry" />
        </mxCell>
        <mxCell id="K5T4_W8C3K1s5eYFWP6l-11" style="edgeStyle=orthogonalEdgeStyle;orthogonalLoop=1;jettySize=auto;html=1;exitX=0.5;exitY=0;exitDx=0;exitDy=0;curved=1;entryX=-0.02;entryY=0.867;entryDx=0;entryDy=0;entryPerimeter=0;" edge="1" parent="1" source="K5T4_W8C3K1s5eYFWP6l-3" target="K5T4_W8C3K1s5eYFWP6l-2">
          <mxGeometry relative="1" as="geometry">
            <mxPoint x="260" y="250" as="targetPoint" />
            <Array as="points">
              <mxPoint x="140" y="250" />
            </Array>
          </mxGeometry>
        </mxCell>
        <mxCell id="K5T4_W8C3K1s5eYFWP6l-3" value="&lt;div&gt;LaserScan&lt;/div&gt;" style="ellipse;whiteSpace=wrap;html=1;" vertex="1" parent="1">
          <mxGeometry x="80" y="330" width="120" height="80" as="geometry" />
        </mxCell>
        <mxCell id="K5T4_W8C3K1s5eYFWP6l-9" style="orthogonalLoop=1;jettySize=auto;html=1;exitX=0.5;exitY=0;exitDx=0;exitDy=0;entryX=0.25;entryY=1;entryDx=0;entryDy=0;edgeStyle=orthogonalEdgeStyle;curved=1;" edge="1" parent="1" source="K5T4_W8C3K1s5eYFWP6l-4" target="K5T4_W8C3K1s5eYFWP6l-2">
          <mxGeometry relative="1" as="geometry">
            <mxPoint x="320" y="280" as="targetPoint" />
          </mxGeometry>
        </mxCell>
        <mxCell id="K5T4_W8C3K1s5eYFWP6l-4" value="KinectScan" style="ellipse;whiteSpace=wrap;html=1;" vertex="1" parent="1">
          <mxGeometry x="160" y="420" width="120" height="80" as="geometry" />
        </mxCell>
        <mxCell id="K5T4_W8C3K1s5eYFWP6l-5" value="Field topic" style="ellipse;whiteSpace=wrap;html=1;" vertex="1" parent="1">
          <mxGeometry x="700" y="380" width="120" height="80" as="geometry" />
        </mxCell>
        <mxCell id="K5T4_W8C3K1s5eYFWP6l-7" style="edgeStyle=orthogonalEdgeStyle;orthogonalLoop=1;jettySize=auto;html=1;exitX=0.7;exitY=0.063;exitDx=0;exitDy=0;entryX=0.65;entryY=1.007;entryDx=0;entryDy=0;entryPerimeter=0;curved=1;exitPerimeter=0;" edge="1" parent="1" source="K5T4_W8C3K1s5eYFWP6l-6" target="K5T4_W8C3K1s5eYFWP6l-2">
          <mxGeometry relative="1" as="geometry" />
        </mxCell>
        <mxCell id="K5T4_W8C3K1s5eYFWP6l-6" value="Dimensions topic" style="ellipse;whiteSpace=wrap;html=1;" vertex="1" parent="1">
          <mxGeometry x="340" y="400" width="120" height="80" as="geometry" />
        </mxCell>
        <mxCell id="K5T4_W8C3K1s5eYFWP6l-44" style="edgeStyle=orthogonalEdgeStyle;orthogonalLoop=1;jettySize=auto;html=1;exitX=0.75;exitY=1;exitDx=0;exitDy=0;entryX=0.417;entryY=-0.05;entryDx=0;entryDy=0;entryPerimeter=0;curved=1;" edge="1" parent="1" source="K5T4_W8C3K1s5eYFWP6l-12" target="K5T4_W8C3K1s5eYFWP6l-5">
          <mxGeometry relative="1" as="geometry" />
        </mxCell>
        <mxCell id="K5T4_W8C3K1s5eYFWP6l-12" value="" style="rounded=0;whiteSpace=wrap;html=1;" vertex="1" parent="1">
          <mxGeometry x="560" y="120" width="100" height="150" as="geometry" />
        </mxCell>
        <mxCell id="K5T4_W8C3K1s5eYFWP6l-14" value="Field" style="text;html=1;align=center;verticalAlign=middle;resizable=0;points=[];autosize=1;strokeColor=none;fillColor=none;" vertex="1" parent="1">
          <mxGeometry x="325" y="90" width="50" height="30" as="geometry" />
        </mxCell>
        <mxCell id="K5T4_W8C3K1s5eYFWP6l-15" value="Field" style="text;html=1;align=center;verticalAlign=middle;resizable=0;points=[];autosize=1;strokeColor=none;fillColor=none;" vertex="1" parent="1">
          <mxGeometry x="585" y="90" width="50" height="30" as="geometry" />
        </mxCell>
        <mxCell id="K5T4_W8C3K1s5eYFWP6l-16" value="" style="ellipse;whiteSpace=wrap;html=1;aspect=fixed;fillColor=#d5e8d4;strokeColor=#82b366;" vertex="1" parent="1">
          <mxGeometry x="560" y="120" width="10" height="10" as="geometry" />
        </mxCell>
        <mxCell id="K5T4_W8C3K1s5eYFWP6l-17" value="" style="ellipse;whiteSpace=wrap;html=1;aspect=fixed;fillColor=#d5e8d4;strokeColor=#82b366;" vertex="1" parent="1">
          <mxGeometry x="650" y="120" width="10" height="10" as="geometry" />
        </mxCell>
        <mxCell id="K5T4_W8C3K1s5eYFWP6l-19" value="" style="ellipse;whiteSpace=wrap;html=1;aspect=fixed;fillColor=#d5e8d4;strokeColor=#82b366;" vertex="1" parent="1">
          <mxGeometry x="560" y="260" width="10" height="10" as="geometry" />
        </mxCell>
        <mxCell id="K5T4_W8C3K1s5eYFWP6l-20" value="" style="ellipse;whiteSpace=wrap;html=1;aspect=fixed;fillColor=#d5e8d4;strokeColor=#82b366;" vertex="1" parent="1">
          <mxGeometry x="650" y="260" width="10" height="10" as="geometry" />
        </mxCell>
        <mxCell id="K5T4_W8C3K1s5eYFWP6l-21" value="" style="ellipse;whiteSpace=wrap;html=1;aspect=fixed;fillColor=#d5e8d4;strokeColor=#82b366;" vertex="1" parent="1">
          <mxGeometry x="560" y="190" width="10" height="10" as="geometry" />
        </mxCell>
        <mxCell id="K5T4_W8C3K1s5eYFWP6l-22" value="" style="ellipse;whiteSpace=wrap;html=1;aspect=fixed;fillColor=#d5e8d4;strokeColor=#82b366;" vertex="1" parent="1">
          <mxGeometry x="650" y="190" width="10" height="10" as="geometry" />
        </mxCell>
        <mxCell id="K5T4_W8C3K1s5eYFWP6l-23" value="" style="ellipse;whiteSpace=wrap;html=1;aspect=fixed;fillColor=#d5e8d4;strokeColor=#82b366;" vertex="1" parent="1">
          <mxGeometry x="560" y="140" width="10" height="10" as="geometry" />
        </mxCell>
        <mxCell id="K5T4_W8C3K1s5eYFWP6l-24" value="" style="ellipse;whiteSpace=wrap;html=1;aspect=fixed;fillColor=#d5e8d4;strokeColor=#82b366;" vertex="1" parent="1">
          <mxGeometry x="650" y="140" width="10" height="10" as="geometry" />
        </mxCell>
        <mxCell id="K5T4_W8C3K1s5eYFWP6l-25" value="" style="ellipse;whiteSpace=wrap;html=1;aspect=fixed;fillColor=#d5e8d4;strokeColor=#82b366;" vertex="1" parent="1">
          <mxGeometry x="560" y="240" width="10" height="10" as="geometry" />
        </mxCell>
        <mxCell id="K5T4_W8C3K1s5eYFWP6l-26" value="" style="ellipse;whiteSpace=wrap;html=1;aspect=fixed;fillColor=#d5e8d4;strokeColor=#82b366;" vertex="1" parent="1">
          <mxGeometry x="650" y="240" width="10" height="10" as="geometry" />
        </mxCell>
        <mxCell id="K5T4_W8C3K1s5eYFWP6l-27" value="" style="ellipse;whiteSpace=wrap;html=1;aspect=fixed;fillColor=#d5e8d4;strokeColor=#82b366;" vertex="1" parent="1">
          <mxGeometry x="560" y="220" width="10" height="10" as="geometry" />
        </mxCell>
        <mxCell id="K5T4_W8C3K1s5eYFWP6l-28" value="" style="ellipse;whiteSpace=wrap;html=1;aspect=fixed;fillColor=#d5e8d4;strokeColor=#82b366;" vertex="1" parent="1">
          <mxGeometry x="650" y="220" width="10" height="10" as="geometry" />
        </mxCell>
        <mxCell id="K5T4_W8C3K1s5eYFWP6l-29" value="" style="ellipse;whiteSpace=wrap;html=1;aspect=fixed;fillColor=#d5e8d4;strokeColor=#82b366;" vertex="1" parent="1">
          <mxGeometry x="560" y="160" width="10" height="10" as="geometry" />
        </mxCell>
        <mxCell id="K5T4_W8C3K1s5eYFWP6l-30" value="" style="ellipse;whiteSpace=wrap;html=1;aspect=fixed;fillColor=#d5e8d4;strokeColor=#82b366;" vertex="1" parent="1">
          <mxGeometry x="650" y="160" width="10" height="10" as="geometry" />
        </mxCell>
        <mxCell id="K5T4_W8C3K1s5eYFWP6l-31" value="" style="rounded=0;whiteSpace=wrap;html=1;fillColor=#dae8fc;strokeColor=#6c8ebf;" vertex="1" parent="1">
          <mxGeometry x="590" y="140" width="40" height="20" as="geometry" />
        </mxCell>
        <mxCell id="K5T4_W8C3K1s5eYFWP6l-32" value="" style="rounded=0;whiteSpace=wrap;html=1;fillColor=#fff2cc;strokeColor=#d6b656;" vertex="1" parent="1">
          <mxGeometry x="590" y="230" width="40" height="20" as="geometry" />
        </mxCell>
        <mxCell id="K5T4_W8C3K1s5eYFWP6l-33" value="" style="ellipse;whiteSpace=wrap;html=1;aspect=fixed;fillColor=#fff2cc;strokeColor=#d6b656;" vertex="1" parent="1">
          <mxGeometry x="585" y="210" width="10" height="10" as="geometry" />
        </mxCell>
        <mxCell id="K5T4_W8C3K1s5eYFWP6l-34" value="" style="ellipse;whiteSpace=wrap;html=1;aspect=fixed;fillColor=#fff2cc;strokeColor=#d6b656;" vertex="1" parent="1">
          <mxGeometry x="605" y="210" width="10" height="10" as="geometry" />
        </mxCell>
        <mxCell id="K5T4_W8C3K1s5eYFWP6l-35" value="" style="ellipse;whiteSpace=wrap;html=1;aspect=fixed;fillColor=#fff2cc;strokeColor=#d6b656;" vertex="1" parent="1">
          <mxGeometry x="630" y="200" width="10" height="10" as="geometry" />
        </mxCell>
        <mxCell id="K5T4_W8C3K1s5eYFWP6l-36" value="" style="ellipse;whiteSpace=wrap;html=1;aspect=fixed;fillColor=#dae8fc;strokeColor=#6c8ebf;" vertex="1" parent="1">
          <mxGeometry x="590" y="180" width="10" height="10" as="geometry" />
        </mxCell>
        <mxCell id="K5T4_W8C3K1s5eYFWP6l-37" value="" style="ellipse;whiteSpace=wrap;html=1;aspect=fixed;fillColor=#dae8fc;strokeColor=#6c8ebf;" vertex="1" parent="1">
          <mxGeometry x="615" y="170" width="10" height="10" as="geometry" />
        </mxCell>
        <mxCell id="K5T4_W8C3K1s5eYFWP6l-38" value="" style="ellipse;whiteSpace=wrap;html=1;aspect=fixed;fillColor=#dae8fc;strokeColor=#6c8ebf;" vertex="1" parent="1">
          <mxGeometry x="625" y="180" width="10" height="10" as="geometry" />
        </mxCell>
        <mxCell id="K5T4_W8C3K1s5eYFWP6l-39" value="" style="shape=umlActor;verticalLabelPosition=bottom;verticalAlign=top;html=1;outlineConnect=0;fillColor=#f8cecc;strokeColor=#b85450;" vertex="1" parent="1">
          <mxGeometry x="585" y="130" width="20" height="20" as="geometry" />
        </mxCell>
        <mxCell id="K5T4_W8C3K1s5eYFWP6l-40" value="" style="shape=umlActor;verticalLabelPosition=bottom;verticalAlign=top;html=1;outlineConnect=0;fillColor=#f8cecc;strokeColor=#b85450;" vertex="1" parent="1">
          <mxGeometry x="610" y="235" width="20" height="20" as="geometry" />
        </mxCell>
        <mxCell id="K5T4_W8C3K1s5eYFWP6l-45" value="&lt;div style=&quot;font-size: 19px;&quot;&gt;Object detection and state machine communication:&lt;/div&gt;" style="text;html=1;align=center;verticalAlign=middle;resizable=0;points=[];autosize=1;strokeColor=none;fillColor=none;fontSize=19;" vertex="1" parent="1">
          <mxGeometry x="50" y="570" width="460" height="40" as="geometry" />
        </mxCell>
        <mxCell id="K5T4_W8C3K1s5eYFWP6l-54" style="edgeStyle=orthogonalEdgeStyle;rounded=0;orthogonalLoop=1;jettySize=auto;html=1;exitX=0.5;exitY=1;exitDx=0;exitDy=0;entryX=0.425;entryY=0;entryDx=0;entryDy=0;entryPerimeter=0;" edge="1" parent="1" source="K5T4_W8C3K1s5eYFWP6l-46" target="K5T4_W8C3K1s5eYFWP6l-52">
          <mxGeometry relative="1" as="geometry" />
        </mxCell>
        <mxCell id="K5T4_W8C3K1s5eYFWP6l-46" value="Object detector topics&lt;br&gt;(FieldComponents)" style="shape=hexagon;perimeter=hexagonPerimeter2;whiteSpace=wrap;html=1;fixedSize=1;" vertex="1" parent="1">
          <mxGeometry x="210" y="870" width="180" height="80" as="geometry" />
        </mxCell>
        <mxCell id="K5T4_W8C3K1s5eYFWP6l-53" style="edgeStyle=orthogonalEdgeStyle;rounded=0;orthogonalLoop=1;jettySize=auto;html=1;exitX=0.375;exitY=1;exitDx=0;exitDy=0;entryX=0.7;entryY=0.033;entryDx=0;entryDy=0;entryPerimeter=0;" edge="1" parent="1" source="K5T4_W8C3K1s5eYFWP6l-47" target="K5T4_W8C3K1s5eYFWP6l-52">
          <mxGeometry relative="1" as="geometry" />
        </mxCell>
        <mxCell id="K5T4_W8C3K1s5eYFWP6l-47" value="Referee communication topics (Dimensions, team color)" style="shape=hexagon;perimeter=hexagonPerimeter2;whiteSpace=wrap;html=1;fixedSize=1;" vertex="1" parent="1">
          <mxGeometry x="470" y="870" width="180" height="80" as="geometry" />
        </mxCell>
        <mxCell id="K5T4_W8C3K1s5eYFWP6l-49" style="edgeStyle=orthogonalEdgeStyle;rounded=0;orthogonalLoop=1;jettySize=auto;html=1;exitX=0.75;exitY=1;exitDx=0;exitDy=0;entryX=0.375;entryY=0;entryDx=0;entryDy=0;" edge="1" parent="1" source="K5T4_W8C3K1s5eYFWP6l-48" target="K5T4_W8C3K1s5eYFWP6l-46">
          <mxGeometry relative="1" as="geometry" />
        </mxCell>
        <mxCell id="K5T4_W8C3K1s5eYFWP6l-48" value="ObjectDetector" style="rounded=0;whiteSpace=wrap;html=1;" vertex="1" parent="1">
          <mxGeometry x="170" y="760" width="120" height="60" as="geometry" />
        </mxCell>
        <mxCell id="K5T4_W8C3K1s5eYFWP6l-51" style="edgeStyle=orthogonalEdgeStyle;rounded=0;orthogonalLoop=1;jettySize=auto;html=1;exitX=0.5;exitY=1;exitDx=0;exitDy=0;entryX=0.375;entryY=-0.05;entryDx=0;entryDy=0;entryPerimeter=0;" edge="1" parent="1" source="K5T4_W8C3K1s5eYFWP6l-50" target="K5T4_W8C3K1s5eYFWP6l-48">
          <mxGeometry relative="1" as="geometry" />
        </mxCell>
        <mxCell id="K5T4_W8C3K1s5eYFWP6l-50" value="Scan topics (LaserScan, Image)" style="shape=hexagon;perimeter=hexagonPerimeter2;whiteSpace=wrap;html=1;fixedSize=1;" vertex="1" parent="1">
          <mxGeometry x="105" y="640" width="180" height="80" as="geometry" />
        </mxCell>
        <mxCell id="K5T4_W8C3K1s5eYFWP6l-56" style="edgeStyle=orthogonalEdgeStyle;rounded=0;orthogonalLoop=1;jettySize=auto;html=1;exitX=0.5;exitY=1;exitDx=0;exitDy=0;entryX=0.5;entryY=0;entryDx=0;entryDy=0;" edge="1" parent="1" source="K5T4_W8C3K1s5eYFWP6l-52" target="K5T4_W8C3K1s5eYFWP6l-55">
          <mxGeometry relative="1" as="geometry" />
        </mxCell>
        <mxCell id="K5T4_W8C3K1s5eYFWP6l-52" value="Field" style="rounded=0;whiteSpace=wrap;html=1;" vertex="1" parent="1">
          <mxGeometry x="360" y="1040" width="120" height="60" as="geometry" />
        </mxCell>
        <mxCell id="K5T4_W8C3K1s5eYFWP6l-59" style="edgeStyle=orthogonalEdgeStyle;rounded=0;orthogonalLoop=1;jettySize=auto;html=1;exitX=0.5;exitY=1;exitDx=0;exitDy=0;entryX=0.5;entryY=0;entryDx=0;entryDy=0;" edge="1" parent="1" source="K5T4_W8C3K1s5eYFWP6l-55" target="K5T4_W8C3K1s5eYFWP6l-60">
          <mxGeometry relative="1" as="geometry">
            <mxPoint x="420" y="1280" as="targetPoint" />
          </mxGeometry>
        </mxCell>
        <mxCell id="K5T4_W8C3K1s5eYFWP6l-55" value="Field topic" style="shape=hexagon;perimeter=hexagonPerimeter2;whiteSpace=wrap;html=1;fixedSize=1;" vertex="1" parent="1">
          <mxGeometry x="330" y="1150" width="180" height="80" as="geometry" />
        </mxCell>
        <mxCell id="K5T4_W8C3K1s5eYFWP6l-58" style="edgeStyle=orthogonalEdgeStyle;rounded=0;orthogonalLoop=1;jettySize=auto;html=1;exitX=0.25;exitY=1;exitDx=0;exitDy=0;entryX=0.5;entryY=0;entryDx=0;entryDy=0;" edge="1" parent="1" source="K5T4_W8C3K1s5eYFWP6l-57" target="K5T4_W8C3K1s5eYFWP6l-47">
          <mxGeometry relative="1" as="geometry" />
        </mxCell>
        <mxCell id="K5T4_W8C3K1s5eYFWP6l-57" value="Referee communication State" style="rounded=0;whiteSpace=wrap;html=1;" vertex="1" parent="1">
          <mxGeometry x="570" y="740" width="120" height="60" as="geometry" />
        </mxCell>
        <mxCell id="K5T4_W8C3K1s5eYFWP6l-61" style="edgeStyle=orthogonalEdgeStyle;rounded=0;orthogonalLoop=1;jettySize=auto;html=1;exitX=0;exitY=0.75;exitDx=0;exitDy=0;dashed=1;entryX=0.5;entryY=0;entryDx=0;entryDy=0;" edge="1" parent="1" source="K5T4_W8C3K1s5eYFWP6l-60" target="K5T4_W8C3K1s5eYFWP6l-62">
          <mxGeometry relative="1" as="geometry">
            <mxPoint x="250" y="1400" as="targetPoint" />
          </mxGeometry>
        </mxCell>
        <mxCell id="K5T4_W8C3K1s5eYFWP6l-67" style="edgeStyle=orthogonalEdgeStyle;rounded=0;orthogonalLoop=1;jettySize=auto;html=1;exitX=0.75;exitY=1;exitDx=0;exitDy=0;entryX=0.858;entryY=0;entryDx=0;entryDy=0;entryPerimeter=0;dashed=1;" edge="1" parent="1" source="K5T4_W8C3K1s5eYFWP6l-60" target="K5T4_W8C3K1s5eYFWP6l-65">
          <mxGeometry relative="1" as="geometry" />
        </mxCell>
        <mxCell id="K5T4_W8C3K1s5eYFWP6l-60" value="State machine logic" style="rounded=0;whiteSpace=wrap;html=1;" vertex="1" parent="1">
          <mxGeometry x="360" y="1290" width="120" height="60" as="geometry" />
        </mxCell>
        <mxCell id="K5T4_W8C3K1s5eYFWP6l-63" style="edgeStyle=orthogonalEdgeStyle;rounded=0;orthogonalLoop=1;jettySize=auto;html=1;exitX=0.75;exitY=0;exitDx=0;exitDy=0;entryX=0.375;entryY=1;entryDx=0;entryDy=0;" edge="1" parent="1" source="K5T4_W8C3K1s5eYFWP6l-62" target="K5T4_W8C3K1s5eYFWP6l-64">
          <mxGeometry relative="1" as="geometry">
            <mxPoint x="310" y="1480" as="targetPoint" />
          </mxGeometry>
        </mxCell>
        <mxCell id="K5T4_W8C3K1s5eYFWP6l-62" value="Find Destination state" style="rounded=0;whiteSpace=wrap;html=1;" vertex="1" parent="1">
          <mxGeometry x="170" y="1520" width="120" height="60" as="geometry" />
        </mxCell>
        <mxCell id="K5T4_W8C3K1s5eYFWP6l-66" style="edgeStyle=orthogonalEdgeStyle;rounded=0;orthogonalLoop=1;jettySize=auto;html=1;exitX=0.625;exitY=1;exitDx=0;exitDy=0;entryX=0.317;entryY=-0.017;entryDx=0;entryDy=0;entryPerimeter=0;" edge="1" parent="1" source="K5T4_W8C3K1s5eYFWP6l-64" target="K5T4_W8C3K1s5eYFWP6l-65">
          <mxGeometry relative="1" as="geometry" />
        </mxCell>
        <mxCell id="K5T4_W8C3K1s5eYFWP6l-64" value="Destination index topic" style="shape=hexagon;perimeter=hexagonPerimeter2;whiteSpace=wrap;html=1;fixedSize=1;" vertex="1" parent="1">
          <mxGeometry x="270" y="1410" width="150" height="50" as="geometry" />
        </mxCell>
        <mxCell id="K5T4_W8C3K1s5eYFWP6l-65" value="Move to destination state" style="rounded=0;whiteSpace=wrap;html=1;" vertex="1" parent="1">
          <mxGeometry x="410" y="1520" width="120" height="60" as="geometry" />
        </mxCell>
      </root>
    </mxGraphModel>
  </diagram>
</mxfile>
